<?xml version="1.0" encoding="UTF-8"?><svg id="Layer_2" xmlns="http://www.w3.org/2000/svg" viewBox="0 0 103.478 270.313"><defs><style>.cls-1{fill:#f15c62;stroke-width:0px;}</style></defs><g id="Layer_1-2"><path class="cls-1" d="m100.684,201.952c-5.606-20.785-16.955-38.603-30.026-55.356-1.226-1.571-2.279-3.022-2.86-4.437l-5.854-7.154h-.02l-13.007-18.377c-.023.03-.046.06-.069.091-1.821-2.689-3.608-5.253-5.357-7.757l-2.52-3.56.026-.018c-3.3-4.745-6.414-9.325-9.217-14.079-6.863-11.643-12.683-23.769-14.007-37.607-1.264-13.206,2.168-24.509,13.865-31.439,11.418-6.765,23.723-6.607,35.215.204,3.764,2.231,6.675,4.94,8.855,8.005l14.046-9.941C77.987,3.335,58.808-2.724,38.945,1.101,19.392,4.867,6.228,16.748,1.433,36.733-1.128,47.408,0,57.997,2.795,68.362c5.606,20.785,16.955,38.603,30.026,55.356,1.226,1.571,2.279,3.022,2.86,4.437l5.854,7.154h.02l13.007,18.377c.023-.03.046-.06.069-.091,1.821,2.689,3.608,5.253,5.357,7.757l2.52,3.56-.026.018c3.3,4.745,6.414,9.325,9.217,14.079,6.863,11.643,12.683,23.769,14.007,37.607,1.264,13.206-2.168,24.509-13.865,31.439-11.418,6.765-23.723,6.607-35.215-.204-3.764-2.231-6.675-4.94-8.855-8.005l-14.046,9.941c11.768,17.192,30.946,23.25,50.809,19.425,19.553-3.765,32.717-15.647,37.512-35.632,2.561-10.675,1.434-21.263-1.362-31.628Z"/></g></svg>